<svg width="441" height="441" viewBox="0 0 441 441" fill="none" xmlns="http://www.w3.org/2000/svg">
<circle cx="220.5" cy="220.762" r="215.238" fill="white" stroke="black" stroke-width="10"/>
<path d="M173.033 280H128.502L128.795 257.002H173.033C188.268 257.002 200.963 253.828 211.119 247.48C221.275 241.035 228.893 232.051 233.971 220.527C239.146 208.906 241.734 195.332 241.734 179.805V166.768C241.734 154.561 240.27 143.721 237.34 134.248C234.41 124.678 230.113 116.621 224.449 110.078C218.785 103.438 211.852 98.4082 203.648 94.9902C195.543 91.5723 186.217 89.8633 175.67 89.8633H127.623V66.7188H175.67C189.635 66.7188 202.379 69.0625 213.902 73.75C225.426 78.3398 235.338 85.0293 243.639 93.8184C252.037 102.51 258.482 113.057 262.975 125.459C267.467 137.764 269.713 151.631 269.713 167.061V179.805C269.713 195.234 267.467 209.15 262.975 221.553C258.482 233.857 251.988 244.355 243.492 253.047C235.094 261.738 224.938 268.428 213.023 273.115C201.207 277.705 187.877 280 173.033 280ZM143.59 66.7188V280H115.318V66.7188H143.59Z" fill="black"/>
<path d="M261.096 352.627L323.938 171.719H354.553L275.598 385H253.771L261.096 352.627ZM202.355 171.719L264.611 352.627L272.375 385H250.549L171.74 171.719H202.355Z" fill="black"/>
</svg>
